HIERARCHY
ROOT joint_Root
{
	OFFSET 0.0 0.0 0.0
	CHANNELS 6 Xposition Yposition Zposition Zrotation Xrotation Yrotation 
	JOINT Hips
	{
		OFFSET -0.726466 93.3139 -2.00062
		CHANNELS 6 Xposition Yposition Zposition Zrotation Xrotation Yrotation 
		JOINT Spine
		{
			OFFSET 15.7357 0.0 0.0
			CHANNELS 6 Xposition Yposition Zposition Zrotation Xrotation Yrotation 
			JOINT Chest
			{
				OFFSET 8.98455 -0.406207 0.0
				CHANNELS 6 Xposition Yposition Zposition Zrotation Xrotation Yrotation 
				JOINT Neck
				{
					OFFSET 16.3773 0.0 0.0
					CHANNELS 6 Xposition Yposition Zposition Zrotation Xrotation Yrotation 
					JOINT Head
					{
						OFFSET 6.45672 0.0 0.0
						CHANNELS 6 Xposition Yposition Zposition Zrotation Xrotation Yrotation 
						End Site
						{
							OFFSET 0.0 0.0 0.0
						}
					}
				}
				JOINT Shoulder_L
				{
					OFFSET 12.9942 -0.242716 4.98039
					CHANNELS 6 Xposition Yposition Zposition Zrotation Xrotation Yrotation 
					JOINT UpperArm_L
					{
						OFFSET 5.34809 0.0 0.0
						CHANNELS 6 Xposition Yposition Zposition Zrotation Xrotation Yrotation 
						JOINT LowerArm_L
						{
							OFFSET 24.3286 1.87007e-05 0.0
							CHANNELS 6 Xposition Yposition Zposition Zrotation Xrotation Yrotation 
							JOINT Hand_L
							{
								OFFSET 22.2916 0.0 0.0
								CHANNELS 6 Xposition Yposition Zposition Zrotation Xrotation Yrotation 
								End Site
								{
									OFFSET 0.0 0.0 0.0
								}
							}
						}
					}
				}
				JOINT Shoulder_R
				{
					OFFSET 12.9945 -0.242716 -4.98039
					CHANNELS 6 Xposition Yposition Zposition Zrotation Xrotation Yrotation 
					JOINT UpperArm_R
					{
						OFFSET -5.34813 0.0 0.0
						CHANNELS 6 Xposition Yposition Zposition Zrotation Xrotation Yrotation 
						JOINT LowerArm_R
						{
							OFFSET -24.3289 0.000322201 0.0
							CHANNELS 6 Xposition Yposition Zposition Zrotation Xrotation Yrotation 
							JOINT Hand_R
							{
								OFFSET -22.2915 -0.000108084 0.0
								CHANNELS 6 Xposition Yposition Zposition Zrotation Xrotation Yrotation 
								End Site
								{
									OFFSET 0.0 0.0 0.0
								}
							}
						}
					}
				}
			}
		}
		JOINT UpperLeg_L
		{
			OFFSET -2.19248 -6.46944 0.0
			CHANNELS 6 Xposition Yposition Zposition Zrotation Xrotation Yrotation 
			JOINT LowerLeg_L
			{
				OFFSET 39.0811 0.0 -1.23785e-05
				CHANNELS 6 Xposition Yposition Zposition Zrotation Xrotation Yrotation 
				JOINT Foot_L
				{
					OFFSET 40.9854 0.0 -1.26872e-05
					CHANNELS 6 Xposition Yposition Zposition Zrotation Xrotation Yrotation 
					JOINT Toes_L
					{
						OFFSET 11.7543 0.0 0.0
						CHANNELS 6 Xposition Yposition Zposition Zrotation Xrotation Yrotation 
						End Site
						{
							OFFSET 0.0 0.0 0.0
						}
					}
				}
			}
		}
		JOINT UpperLeg_R
		{
			OFFSET -2.19251 6.46944 0.0
			CHANNELS 6 Xposition Yposition Zposition Zrotation Xrotation Yrotation 
			JOINT LowerLeg_R
			{
				OFFSET -39.0811 -0.00228153 -0.0401928
				CHANNELS 6 Xposition Yposition Zposition Zrotation Xrotation Yrotation 
				JOINT Foot_R
				{
					OFFSET -40.9854 0.0 0.0
					CHANNELS 6 Xposition Yposition Zposition Zrotation Xrotation Yrotation 
					JOINT Toes_R
					{
						OFFSET -11.7543 0.0 0.0
						CHANNELS 6 Xposition Yposition Zposition Zrotation Xrotation Yrotation 
						End Site
						{
							OFFSET 0.0 0.0 0.0
						}
					}
				}
			}
		}
	}
}
MOTION
Frames:	8
Frame Time:	0.0333333
0.000000 0.000000 0.000000 0.000000 0.000000 -0.000000 -0.710391 92.181300 -1.303430 88.002900 -1.493070 3.652700 15.735700 0.000005 -0.000001 77.163700 87.947100 -76.013200 8.984550 -0.406207 -0.000000 -3.751850 -1.027190 2.268360 16.377300 -0.000001 -0.000001 -2.420840 -1.862590 0.233617 6.456720 -0.000001 -0.000000 -1.628060 -2.036690 -0.245039 12.994200 -0.242716 4.980390 -84.813300 -10.908400 -64.374400 5.348090 -0.000007 -0.000001 -61.530400 -52.889000 -93.103300 24.328600 0.000019 0.000005 5.932670 3.508380 -59.506700 22.291600 -0.000001 0.000005 21.539200 5.601430 -11.428200 12.994500 -0.242716 -4.980390 92.304000 -5.195770 -66.044500 -5.348130 -0.000001 -0.000004 -55.978400 -51.635400 -105.452000 -24.328900 0.000322 -0.000009 -0.421077 -0.431647 -44.211800 -22.291500 -0.000108 -0.000004 22.766800 5.550740 -8.740880 -2.192480 -6.469440 -0.000000 -169.186000 -18.125500 -2.451280 39.081100 -0.000007 -0.000012 -0.160304 0.413414 21.194300 40.985400 -0.000006 -0.000013 -6.885930 -2.150370 -62.778800 11.754300 -0.000000 0.000003 -0.000088 -0.000919 -16.612900 -2.192510 6.469440 -0.000001 174.227000 21.202400 179.202000 -39.081100 -0.002282 -0.040193 0.004788 -0.004137 19.505200 -40.985400 0.000008 0.000006 -2.154150 0.374184 -62.860500 -11.754300 -0.000006 -0.000006 -0.004242 -0.053931 -18.767000
0.000000 0.000000 0.000000 0.000000 0.000000 -0.000000 -0.715530 92.185500 -1.341590 87.999500 -1.429720 3.633000 15.735700 0.000005 -0.000001 77.241200 87.931600 -76.091100 8.984550 -0.406207 -0.000000 -3.720240 -1.028310 2.267710 16.377300 -0.000001 -0.000001 -2.395420 -1.856810 0.265749 6.456720 -0.000001 -0.000000 -1.659270 -2.005850 -0.326413 12.994200 -0.242716 4.980390 -84.843100 -10.849100 -64.383400 5.348090 -0.000007 -0.000001 -61.689100 -52.896300 -93.199200 24.328600 0.000019 0.000005 5.978720 3.508690 -59.699200 22.291600 -0.000001 0.000005 21.557600 5.600220 -11.355700 12.994500 -0.242716 -4.980390 92.297200 -5.171060 -66.007000 -5.348130 -0.000001 -0.000004 -56.075700 -51.699900 -105.504000 -24.328900 0.000322 -0.000009 -0.396878 -0.405742 -44.284500 -22.291500 -0.000108 -0.000004 22.734600 5.549470 -8.681370 -2.192480 -6.469440 -0.000000 -169.197000 -18.135400 -2.523330 39.081100 -0.000007 -0.000012 -0.159811 0.412157 21.193700 40.985400 -0.000006 -0.000013 -6.865410 -2.102890 -62.731000 11.754300 -0.000000 0.000003 -0.000104 -0.001062 -16.618300 -2.192510 6.469440 -0.000001 174.244000 21.290600 179.164000 -39.081100 -0.002282 -0.040193 0.004693 -0.003869 19.506000 -40.985400 0.000008 0.000006 -2.089760 0.388495 -62.842600 -11.754300 -0.000006 -0.000006 -0.004177 -0.053264 -18.739800
0.000000 0.000000 0.000000 0.000000 0.000000 -0.000000 -0.720411 92.184500 -1.358430 87.991500 -1.370380 3.622040 15.735700 0.000005 -0.000001 77.495000 87.919700 -76.342900 8.984550 -0.406207 -0.000000 -3.693100 -1.015520 2.272490 16.377300 -0.000001 -0.000001 -2.390150 -1.838720 0.262241 6.456720 -0.000001 -0.000000 -1.584150 -1.976080 -0.363253 12.994200 -0.242716 4.980390 -84.845100 -10.840000 -64.373700 5.348090 -0.000007 -0.000001 -61.845300 -52.808100 -93.220400 24.328600 0.000019 0.000005 5.941400 3.463830 -59.862400 22.291600 -0.000001 0.000005 21.665500 5.600370 -11.364600 12.994500 -0.242716 -4.980390 92.295300 -5.165840 -66.003200 -5.348130 -0.000001 -0.000004 -56.010900 -51.815000 -105.388000 -24.328900 0.000322 -0.000009 -0.435334 -0.443787 -44.373800 -22.291500 -0.000108 -0.000004 22.736800 5.549790 -8.696130 -2.192480 -6.469440 -0.000000 -169.194000 -18.108600 -2.568550 39.081100 -0.000007 -0.000012 -0.160424 0.413330 21.212700 40.985400 -0.000006 -0.000013 -6.856970 -2.056870 -62.722500 11.754300 -0.000000 0.000003 -0.000089 -0.000930 -16.613300 -2.192510 6.469440 -0.000001 174.248000 21.342800 179.164000 -39.081100 -0.002282 -0.040193 0.002611 0.002011 19.474400 -40.985400 0.000008 0.000006 -2.251120 0.382035 -62.810200 -11.754300 -0.000006 -0.000006 -0.004177 -0.053268 -18.740000
0.000000 0.000000 0.000000 0.000000 0.000000 -0.000000 -0.722209 92.196300 -1.371340 87.998900 -1.354030 3.588180 15.735700 0.000005 -0.000001 77.826100 87.908600 -76.674400 8.984550 -0.406207 -0.000000 -3.666500 -0.996400 2.272340 16.377300 -0.000001 -0.000001 -2.361940 -1.789890 0.267027 6.456720 -0.000001 -0.000000 -1.598310 -1.904320 -0.425639 12.994200 -0.242716 4.980390 -84.850600 -10.806400 -64.329000 5.348090 -0.000007 -0.000001 -61.853100 -52.756700 -93.151300 24.328600 0.000019 0.000005 5.905480 3.433850 -59.926400 22.291600 -0.000001 0.000005 21.631600 5.601560 -11.436300 12.994500 -0.242716 -4.980390 92.300200 -5.175580 -65.997800 -5.348130 -0.000001 -0.000004 -55.954200 -51.868400 -105.304000 -24.328900 0.000322 -0.000009 -0.427827 -0.435436 -44.418000 -22.291500 -0.000108 -0.000004 22.800100 5.550000 -8.706030 -2.192480 -6.469440 -0.000000 -169.216000 -18.056800 -2.569050 39.081100 -0.000007 -0.000012 -0.159662 0.413515 21.112200 40.985400 -0.000006 -0.000013 -6.858310 -2.061860 -62.666000 11.754300 -0.000000 0.000003 -0.000096 -0.000998 -16.615900 -2.192510 6.469440 -0.000001 174.273000 21.360200 179.132000 -39.081100 -0.002282 -0.040193 0.005114 -0.005075 19.444800 -40.985400 0.000008 0.000006 -2.069860 0.359615 -62.796700 -11.754300 -0.000006 -0.000006 -0.004203 -0.053536 -18.750900
0.000000 0.000000 0.000000 0.000000 0.000000 -0.000000 -0.738862 92.186800 -1.401470 88.006500 -1.308040 3.555670 15.735700 0.000005 -0.000001 78.060000 87.894400 -76.911300 8.984550 -0.406207 -0.000000 -3.635250 -0.984997 2.267000 16.377300 -0.000001 -0.000001 -2.322560 -1.768630 0.261037 6.456720 -0.000001 -0.000000 -1.590490 -1.865510 -0.445840 12.994200 -0.242716 4.980390 -84.850800 -10.811800 -64.340800 5.348090 -0.000007 -0.000001 -61.645800 -52.789300 -92.899500 24.328600 0.000019 0.000005 5.900370 3.429750 -59.934400 22.291600 -0.000001 0.000005 21.572900 5.599530 -11.314400 12.994500 -0.242716 -4.980390 92.297600 -5.160690 -65.960900 -5.348130 -0.000001 -0.000004 -55.908600 -51.894300 -105.262000 -24.328900 0.000322 -0.000009 -0.366995 -0.373167 -44.431600 -22.291500 -0.000108 -0.000004 22.726300 5.548000 -8.611960 -2.192480 -6.469440 -0.000000 -169.230000 -18.058800 -2.670620 39.081100 -0.000007 -0.000012 -0.160466 0.414005 21.186200 40.985400 -0.000006 -0.000013 -6.857050 -2.034240 -62.673200 11.754300 -0.000000 0.000003 -0.000101 -0.001042 -16.617500 -2.192510 6.469440 -0.000001 174.267000 21.351700 179.077000 -39.081100 -0.002282 -0.040193 0.000224 0.008759 19.478200 -40.985400 0.000008 0.000006 -2.271930 0.370447 -62.801800 -11.754300 -0.000006 -0.000006 -0.004153 -0.053021 -18.729900
0.000000 0.000000 0.000000 0.000000 0.000000 -0.000000 -0.752235 92.198000 -1.411160 88.021900 -1.275680 3.544390 15.735700 0.000005 -0.000001 78.211500 87.865200 -77.068300 8.984550 -0.406207 -0.000000 -3.575870 -0.984896 2.256330 16.377300 -0.000001 -0.000001 -2.269610 -1.742520 0.264634 6.456720 -0.000001 -0.000000 -1.606450 -1.814380 -0.456955 12.994200 -0.242716 4.980390 -84.856600 -10.792800 -64.327400 5.348090 -0.000007 -0.000001 -61.492000 -52.828000 -92.735800 24.328600 0.000019 0.000005 5.942190 3.465830 -59.851400 22.291600 -0.000001 0.000005 21.431500 5.599100 -11.288500 12.994500 -0.242716 -4.980390 92.295000 -5.148600 -65.934300 -5.348130 -0.000001 -0.000004 -55.771100 -51.918400 -105.162000 -24.328900 0.000322 -0.000009 -0.323835 -0.329777 -44.377100 -22.291500 -0.000108 -0.000004 22.782800 5.549440 -8.679560 -2.192480 -6.469440 -0.000000 -169.248000 -18.058200 -2.652160 39.081100 -0.000007 -0.000012 -0.158004 0.409703 21.089500 40.985400 -0.000006 -0.000013 -6.852970 -2.019230 -62.608000 11.754300 -0.000000 0.000003 -0.000093 -0.000971 -16.614900 -2.192510 6.469440 -0.000001 174.274000 21.420500 179.076000 -39.081100 -0.002282 -0.040193 0.002040 0.003633 19.441300 -40.985400 0.000008 0.000006 -2.199680 0.360565 -62.779400 -11.754300 -0.000006 -0.000006 -0.004017 -0.051616 -18.672700
0.000000 0.000000 0.000000 0.000000 0.000000 -0.000000 -0.775362 92.198800 -1.426670 88.011000 -1.213230 3.497510 15.735700 0.000005 -0.000001 78.050800 87.839400 -76.907800 8.984550 -0.406207 -0.000000 -3.527700 -1.006780 2.255610 16.377300 -0.000001 -0.000001 -2.220430 -1.768730 0.325013 6.456720 -0.000001 -0.000000 -1.608180 -1.813470 -0.484592 12.994200 -0.242716 4.980390 -84.857300 -10.779200 -64.302200 5.348090 -0.000007 -0.000001 -61.445700 -52.830600 -92.663200 24.328600 0.000019 0.000005 5.948940 3.479820 -59.779700 22.291600 -0.000001 0.000005 21.279100 5.598590 -11.258400 12.994500 -0.242716 -4.980390 92.300100 -5.161410 -65.940500 -5.348130 -0.000001 -0.000004 -55.601200 -51.984700 -104.915000 -24.328900 0.000322 -0.000009 -0.341878 -0.346461 -44.522000 -22.291500 -0.000108 -0.000004 22.849100 5.548400 -8.630830 -2.192480 -6.469440 -0.000000 -169.239000 -18.010800 -2.723700 39.081100 -0.000007 -0.000012 -0.159799 0.414623 21.077200 40.985400 -0.000006 -0.000013 -6.866260 -2.005270 -62.578100 11.754300 -0.000000 0.000003 -0.000092 -0.000962 -16.614500 -2.192510 6.469440 -0.000001 174.326000 21.442900 179.017000 -39.081100 -0.002282 -0.040193 0.003941 -0.001752 19.452200 -40.985400 0.000008 0.000006 -2.167080 0.333643 -62.788400 -11.754300 -0.000006 -0.000006 -0.004340 -0.054932 -18.807800
0.000000 0.000000 0.000000 0.000000 0.000000 -0.000000 -0.792064 92.207400 -1.429240 88.031200 -1.133360 3.481970 15.735700 0.000005 -0.000001 78.145900 87.808800 -77.010900 8.984550 -0.406207 -0.000000 -3.466390 -1.010960 2.240090 16.377300 -0.000001 -0.000001 -2.160320 -1.769890 0.312128 6.456720 -0.000001 -0.000000 -1.554410 -1.849660 -0.453719 12.994200 -0.242716 4.980390 -84.872900 -10.762400 -64.336400 5.348090 -0.000007 -0.000001 -61.435900 -52.798400 -92.585800 24.328600 0.000019 0.000005 5.785610 3.388470 -59.743200 22.291600 -0.000001 0.000005 21.180400 5.599200 -11.295200 12.994500 -0.242716 -4.980390 92.301400 -5.148570 -65.875400 -5.348130 -0.000001 -0.000004 -55.409800 -52.017600 -104.708000 -24.328900 0.000322 -0.000009 -0.315994 -0.319156 -44.610600 -22.291500 -0.000108 -0.000004 22.908200 5.549200 -8.668590 -2.192480 -6.469440 -0.000000 -169.253000 -18.057700 -2.714950 39.081100 -0.000007 -0.000012 -0.158009 0.411825 20.991000 40.985400 -0.000006 -0.000013 -6.852100 -1.917050 -62.510900 11.754300 -0.000000 0.000003 -0.000098 -0.001015 -16.616500 -2.192510 6.469440 -0.000001 174.332000 21.478500 179.013000 -39.081100 -0.002282 -0.040193 0.005318 -0.005656 19.433800 -40.985400 0.000008 0.000006 -2.091190 0.276357 -62.788300 -11.754300 -0.000006 -0.000006 -0.004127 -0.052758 -18.719200
